<?xml version="1.0" encoding="UTF-8"?>
<svg id="Layer_2" data-name="Layer 2" xmlns="http://www.w3.org/2000/svg" viewBox="0 0 858.65 670.26">
  <defs>
    <style>
      .cls-1 {
        fill: #1a1eba;
      }

      .cls-1, .cls-2, .cls-3, .cls-4 {
        stroke-width: 0px;
      }

      .cls-2 {
        fill: #a5170d;
      }

      .cls-3 {
        fill: #a5180e;
      }

      .cls-4 {
        fill: #191dba;
      }
    </style>
  </defs>
  <g id="Layer_1-2" data-name="Layer 1">
    <g>
      <path class="cls-3" d="m.46,107.54c-.11-1.26-.31-2.52-.31-3.78-.02-33.79-.01-67.57,0-101.36,0-.72.07-1.45.11-2.36C2.49-.23,3.96,1.3,5.57,2.26c76.71,45.73,153.4,91.48,230.09,137.24,173.33,103.42,346.66,206.84,519.98,310.29,4.18,2.5,8.81,4.27,12.47,7.61.88,2.63.75,5.35.75,8.06,0,28.93,0,57.86,0,86.79,0,3.07-.08,6.15.66,9.16.2.57.31,1.17.34,1.77-1.86,4.63-4.78,1.98-7.02.7-9.13-5.25-18.1-10.77-27.14-16.18-68.26-40.79-136.6-81.46-204.85-122.27-60.15-35.96-120.37-71.8-180.55-107.71-65.79-39.26-131.56-78.55-197.38-117.77-48.5-28.9-96.92-57.96-145.46-86.78-2.55-1.51-5.83-2.32-7.02-5.62Z"/>
      <path class="cls-1" d="m.46,107.54c29.48,17.55,58.98,35.09,88.45,52.66,73.29,43.71,146.56,87.44,219.84,131.17,51.6,30.8,103.2,61.62,154.8,92.41,81.39,48.56,162.78,97.11,244.17,145.66,18.4,10.98,36.78,21.98,55.2,32.92,1.9,1.13,3.67,3.26,6.34,1.67,1.26,4.32-.48,8.53-.45,12.84.2,28.12.12,56.25.08,84.37,0,3.03.53,6.24-1.8,8.83-3.56-.4-6.37-2.48-9.31-4.23-91.38-54.38-182.75-108.78-274.11-163.18C324.32,407.76,165,312.86,5.59,218.08,1.48,215.64-.04,213.12,0,208.29c.25-31.6.12-63.2.14-94.79,0-1.99.2-3.97.31-5.96Z"/>
      <path class="cls-4" d="m767.08,670.06c.02-31.92.07-63.84.02-95.77,0-3.62-.04-7.15,2.15-10.27.04-.3.1-.59.18-.88,4.57-5.15,11.05-7.44,16.74-10.82,21.82-12.95,43.85-25.54,65.78-38.31,1.86-1.08,3.63-2.51,6.03-1.89.72,1.75.41,3.58.42,5.38.08,31.2.09,62.4.26,93.59.02,3.39-.71,5.52-3.88,7.41-27.88,16.57-55.63,33.36-83.45,50.04-1.27.76-2.4,2.25-4.25,1.51Z"/>
      <path class="cls-2" d="m857.97,512.12c-28.38,16.47-56.76,32.94-85.15,49.4-1.09.63-2.06,1.51-3.4,1.62-1.13-.22-2.12-.64-2.19-1.99-.08-1.45-.09-2.9-.09-4.35,0-31.23-.02-62.46.03-93.7,0-1.92-.7-4.03.95-5.71,4.68,2.71,9.4,5.36,14.04,8.14,23.89,14.31,47.78,28.64,71.62,43.05,1.53.92,3.87,1.11,4.19,3.53Z"/>
    </g>
  </g>
</svg>