<svg xmlns="http://www.w3.org/2000/svg" xmlns:xlink="http://www.w3.org/1999/xlink" viewBox="0,0,256,256" width="96px" height="96px"><g fill="#fcfffb" fill-rule="nonzero" stroke="none" stroke-width="1" stroke-linecap="butt" stroke-linejoin="miter" stroke-miterlimit="10" stroke-dasharray="" stroke-dashoffset="0" font-family="none" font-weight="none" font-size="none" text-anchor="none" style="mix-blend-mode: normal"><g transform="scale(4,4)"><path d="M23.77344,12c-10.918,0 -11.77344,0.85444 -11.77344,11.77344v16.45312c0,10.918 0.85544,11.77344 11.77344,11.77344h16.45312c10.918,0 11.77344,-0.85444 11.77344,-11.77344v-16.45312c0,-10.919 -0.85444,-11.77344 -11.77344,-11.77344zM21.16797,16h21.66406c4.793,0 5.16797,0.37497 5.16797,5.16797v21.66406c0,4.793 -0.37597,5.16797 -5.16797,5.16797h-21.66406c-4.793,0 -5.16797,-0.37597 -5.16797,-5.16797v-21.66406c0,-4.793 0.37497,-5.16797 5.16797,-5.16797zM32.74023,19.69336v16.60156c0,2.282 -1.9842,3.46094 -3.4082,3.46094c-1.073,0 -3.51367,-0.84128 -3.51367,-3.48828c0,-2.779 2.27706,-3.48828 3.53906,-3.48828c0.735,0 1.02344,0.1582 1.02344,0.1582v-4.42969c0,0 -0.55069,-0.08203 -1.17969,-0.08203c-4.519,0 -7.73633,3.6578 -7.73633,7.8418c0,3.535 2.76445,7.81445 7.81445,7.81445c5.379,0 7.8418,-4.48606 7.8418,-7.78906v-8.23437c0,0 2.39733,1.67773 5.61133,1.67773v-4.19531c-3.687,-0.263 -5.65792,-2.73966 -5.79492,-5.84766z"></path></g></g></svg>